<?xml version="1.0" encoding="UTF-8" standalone="no"?>
<svg
   viewBox="0 0 512 640"
   x="0px"
   y="0px"
   version="1.1"
   id="svg6"
   sodipodi:docname="1element.svg"
   inkscape:version="1.4.4 (dcaf3e7, 2026-05-05)"
   xmlns:inkscape="http://www.inkscape.org/namespaces/inkscape"
   xmlns:sodipodi="http://sodipodi.sourceforge.net/DTD/sodipodi-0.dtd"
   xmlns="http://www.w3.org/2000/svg"
   xmlns:svg="http://www.w3.org/2000/svg">
  <defs
     id="defs6" />
  <sodipodi:namedview
     id="namedview6"
     pagecolor="#ffffff"
     bordercolor="#666666"
     borderopacity="1.0"
     inkscape:showpageshadow="2"
     inkscape:pageopacity="0.0"
     inkscape:pagecheckerboard="0"
     inkscape:deskcolor="#d1d1d1"
     showgrid="false"
     inkscape:zoom="1.3359375"
     inkscape:cx="256"
     inkscape:cy="320"
     inkscape:window-width="1920"
     inkscape:window-height="1057"
     inkscape:window-x="-8"
     inkscape:window-y="-8"
     inkscape:window-maximized="1"
     inkscape:current-layer="svg6" />
  <g
     id="g5"
     style="fill:#225500">
    <path
       d="M 483.6,204.7 A 55.63,55.63 0 0 0 444,188.3 H 280 v -16.747 a 40.08,40.08 0 0 0 32.056,-44.559 l -1.92,-14.48 c 14.6,4.012 29.364,7.083 40.373,7.083 8.71,0 15.07,-1.922 17.131,-6.821 1.751,-4.178 0.082,-9.051 -5.088,-14.852 l -1.5,-8.749 7,-6.824 a 4,4 0 0 0 -2.217,-6.823 l -9.675,-1.406 -4.327,-8.767 a 4,4 0 0 0 -7.174,0 l -4.326,8.767 -7.605,1.106 c -2.362,-1.45 -4.868,-2.939 -7.489,-4.449 l -1.1,-8.319 c 32.87,-18.77 47.5,-33.12 43.5,-42.64 -4.06,-9.64 -24.98,-9.1 -62.21,1.59 a 45.28,45.28 0 0 0 -60.57,4.81 l -5.11,5.41 c -22.82,-8.3 -44.11,-14.33 -60.18,-17.02 -19.77,-3.31 -30.32,-1.65 -33.21,5.21 -5.22,12.43 22.89,31.3 48.51,45.44 -0.12,0.73 -0.2,1.47 -0.26,2.21 v 0.006 c -16.97,9.4 -30.406,18.442 -38.722,26.015 l -1.054,-2.136 a 4,4 0 0 0 -7.174,0 l -4.326,8.767 -9.675,1.406 a 4,4 0 0 0 -2.217,6.823 l 7,6.824 -1.653,9.635 a 4,4 0 0 0 5.8,4.217 l 8.653,-4.549 8.653,4.549 a 4,4 0 0 0 5.8,-4.216 l -0.9,-5.244 c 12.72,-0.343 29.651,-4.358 43.276,-8.246 0,0 2.149,5.369 2.149,5.379 3.9,9.55 11.96,15.98 21.77,16.26 v 55.34 l -167.98,0.155 A 56.062,56.062 0 0 0 12,244.3 v 252 a 4,4 0 0 0 4,4 h 480 a 4,4 0 0 0 4,-4 v -252 A 55.634,55.634 0 0 0 483.6,204.7 Z M 360.26,22.92 C 360.91,24.45 356.02,34.6 323,53.87 L 322.66,51.3 A 44.977,44.977 0 0 0 312.17,27.84 c 36.8,-10.06 47.44,-6.45 48.09,-4.92 z m -39.1,54.741 c 2.337,1.346 4.582,2.674 6.706,3.97 a 4.025,4.025 0 0 0 0.574,0.72 l 7,6.824 -1.65,9.635 a 4,4 0 0 0 5.8,4.217 l 8.653,-4.549 7.657,4.022 c 4.139,4.416 4.561,6.719 4.367,7.181 -0.71,1.685 -12.195,5.3 -51.271,-5.8 L 305.787,79.7 Z M 116,492.3 H 20 v -88 h 96 z M 153.74,22.92 c 0.01,-0.04 2.75,-4.06 24.51,-0.42 12.94,2.17 29.45,6.59 47.47,12.67 A 35.641,35.641 0 0 0 197.01,57.31 C 158.72,35.92 153.03,24.62 153.74,22.92 Z m 14.194,88.471 3.119,-3.04 a 4,4 0 0 0 -2.217,-6.823 l -8.524,-1.239 c 7.118,-6.768 19.156,-15.05 34.68,-23.858 a 36.452,36.452 0 0 0 2.028,7.159 l 8.08,20.26 v 0 c -15.043,4.257 -27.811,6.832 -37.166,7.541 z M 236,196.3 a 4,4 0 0 0 4,-4 v -63.61 a 4,4 0 0 0 -1.44,-3.05 4.072,4.072 0 0 0 -3.27,-0.89 c -0.17,0.03 -0.33,0.06 -0.52,0.08 a 15.641,15.641 0 0 1 -16.89,-10.48 c -0.02,-0.07 -0.04,-0.13 -0.06,-0.19 a 15.014,15.014 0 0 1 -0.64,-2.8 16.457,16.457 0 0 1 -0.13,-2.71 v 0 c 4.13,-1.282 8.369,-2.66 12.679,-4.132 a 4.0002324,4.0002324 0 0 0 -2.586,-7.571 c -2.108,0.721 -4.192,1.411 -6.262,2.086 a 15.7,15.7 0 0 1 19.039,-3.623 3.988,3.988 0 0 0 5.46,-1.83 48.818,48.818 0 0 0 4.66,-18.4 l 1.63,0.48 a 128.185,128.185 0 0 0 46.159,4.88 l 2.764,20.853 c -0.952,-0.292 -1.9,-0.58 -2.875,-0.888 a 4,4 0 1 0 -2.4,7.631 c 2.113,0.664 4.263,1.322 6.431,1.969 l 2.377,17.941 a 32.061,32.061 0 0 1 -39.2,35.383 4,4 0 1 0 -1.85,7.783 40.159,40.159 0 0 0 8.924,1.078 v 20.01 a 4,4 0 0 0 4,4 h 39.866 a 59.413,59.413 0 0 1 -1.083,8.033 c -0.927,-0.017 -1.853,-0.035 -2.783,-0.035 A 147.322,147.322 0 0 0 217.827,238.209 59.22,59.22 0 0 1 196.491,196.3 Z m 76,296 c -77.2,0 -140,-62.8 -140,-140 0,-77.2 62.8,-140 140,-140 77.2,0 140,62.8 140,140 0,77.2 -62.8,140 -140,140 z m 180,0 H 396 V 474.079 A 148.774,148.774 0 0 0 450.561,404.3 H 492 Z"
       id="path1"
       style="fill:#225500" />
    <path
       d="m 274.264,128.293 a 4.146,4.146 0 0 0 0.53,-0.034 l 12.993,-1.722 a 4,4 0 0 0 3.44,-4.491 l -2.76,-20.818 a 4,4 0 1 0 -7.93,1.05 l 2.234,16.854 -9.028,1.195 a 4,4 0 0 0 0.521,7.966 z"
       id="path2"
       style="fill:#225500" />
    <path
       d="m 268.115,151.851 a 4,4 0 0 0 5.608,-0.745 23.156,23.156 0 0 1 15.442,-8.934 l 0.681,-0.09 a 4.000401,4.000401 0 0 0 -1.047,-7.932 l -0.683,0.091 a 31.107,31.107 0 0 0 -20.745,12 4,4 0 0 0 0.744,5.61 z"
       id="path3"
       style="fill:#225500" />
    <path
       d="m 351.4,400.913 q 2.778,0 5.555,-0.171 a 90.492,90.492 0 0 0 25.988,-5.5 L 426.417,379.1 a 4,4 0 0 0 -0.47,-7.642 l -45.122,-10.7 a 90.6,90.6 0 0 0 -49.3,2.115 l -12.8,4.224 21.921,-12.466 a 100.226,100.226 0 0 0 40.3,-42.671 l 22.813,-46.008 a 4,4 0 0 0 -5.362,-5.361 L 352.39,283.4 a 100.217,100.217 0 0 0 -42.671,40.3 l -13.573,23.87 4.981,-15.1 a 90.6,90.6 0 0 0 2.115,-49.3 l -10.7,-45.122 a 4,4 0 0 0 -7.642,-0.47 l -16.144,43.473 a 90.636,90.636 0 0 0 -3.935,49.186 l 2.594,13.068 -2.846,-7.217 a 74.611,74.611 0 0 0 -27.6,-34.428 l -27.458,-18.57 a 4,4 0 0 0 -6.074,4.456 l 9.476,31.765 a 74.626,74.626 0 0 0 24.554,36.665 l 14.366,11.629 -4.241,-2.025 A 55.347,55.347 0 0 0 215.2,360.84 l -23.817,3.72 a 4,4 0 0 0 -1.409,7.4 l 20.785,12.209 A 55.349,55.349 0 0 0 238.8,391.8 q 1.912,0 3.825,-0.133 l 26.221,-1.817 -48.217,48.216 a 4,4 0 1 0 5.656,5.657 l 47.815,-47.818 -1.766,25.47 a 55.346,55.346 0 0 0 7.494,31.866 l 12.21,20.785 a 4,4 0 0 0 3.449,1.974 4.056,4.056 0 0 0 0.749,-0.07 4,4 0 0 0 3.2,-3.313 l 3.72,-23.817 a 55.351,55.351 0 0 0 -4.74,-32.392 l -2.025,-4.241 11.63,14.367 a 74.624,74.624 0 0 0 36.664,24.553 l 31.765,9.476 a 4,4 0 0 0 4.456,-6.074 l -18.574,-27.455 a 74.612,74.612 0 0 0 -34.428,-27.6 l -7.221,-2.848 13.072,2.6 a 90.7,90.7 0 0 0 17.645,1.727 z"
       id="path4"
       style="fill:#225500" />
    <circle
       cx="192"
       cy="144"
       r="12"
       id="circle4"
       style="fill:#225500" />
    <circle
       cx="384"
       cy="56"
       r="12"
       id="circle5"
       style="fill:#225500" />
  </g>
  <path
     style="fill:#225500;stroke-width:0.748538;paint-order:stroke markers fill"
     d="m 13.473684,498.91645 c -0.989368,-0.62539 -1.148308,-15.63585 -1.337387,-126.30432 -0.142495,-83.4035 0.04749,-128.06898 0.565556,-132.96036 2.425519,-22.90091 16.36907,-40.65589 37.824463,-48.16367 l 5.988304,-2.09546 80.46784,-0.46933 c 44.25731,-0.25814 83.75204,-0.51359 87.76608,-0.56767 l 7.29824,-0.0983 v -27.66199 -27.66198 l -2.80701,-0.51087 c -8.06615,-1.46802 -15.09629,-7.44297 -18.5583,-15.77278 -1.1698,-2.81464 -2.19762,-5.22486 -2.28404,-5.35605 -0.0864,-0.13119 -4.82172,0.9254 -10.52289,2.34798 -10.41763,2.59944 -20.84531,4.54761 -28.95385,5.40936 l -4.36587,0.46399 0.49132,3.57236 c 0.38349,2.78828 0.22102,3.84267 -0.74023,4.80392 -1.70763,1.70763 -2.64744,1.57401 -8.20513,-1.16662 l -4.86325,-2.39817 -5.13864,2.48592 c -8.10739,3.9221 -9.75664,2.61041 -8.27399,-6.58051 l 0.90515,-5.61094 -3.37452,-3.05514 c -4.10402,-3.71562 -5.12618,-5.51099 -4.3326,-7.61001 0.6511,-1.72218 1.87245,-2.15255 8.28974,-2.92111 l 4.20157,-0.50319 2.1187,-4.432844 c 1.16528,-2.43806 2.71364,-4.97125 3.44079,-5.62931 1.77652,-1.60774 4.63704,-0.81426 5.73256,1.59013 l 0.86411,1.89653 4.69112,-3.81851 c 5.34142,-4.34785 21.19761,-14.94788 27.89579,-18.64863 5.16431,-2.85329 7.12032,-4.38363 7.08911,-5.54639 -0.0121,-0.45081 -4.90232,-3.6683 -10.86715,-7.14998 -23.45768,-13.69227 -38.42094,-27.62502 -38.49792,-35.84658 -0.0465,-4.96804 5.23442,-8.70108 13.45725,-9.5128 12.20112,-1.20443 41.99122,5.21088 71.37518,15.37068 l 8.87226,3.06768 6.0985,-5.83047 c 6.99904,-6.69143 12.91176,-10.1067 21.14113,-12.21142 7.30258,-1.86769 14.22012,-1.87821 21.43629,-0.0326 5.02343,1.28478 12.16838,4.44645 15.64835,6.92447 0.96992,0.69066 3.5552,0.30252 12.35088,-1.8543 16.84575,-4.13081 23.7712,-5.23684 33.20606,-5.30319 7.2862,-0.0512 9.14453,0.18507 12.10061,1.5388 5.81348,2.66226 7.41018,7.0701 4.81288,13.28631 -2.65619,6.35718 -17.90816,19.14512 -35.01298,29.35646 -7.90088,4.71672 -7.89901,4.7138 -6.89958,10.75273 0.36203,2.18757 1.04924,2.96998 4.1091,4.67837 3.78548,2.1135 5.50761,2.39578 9.61027,1.57525 2.02841,-0.40568 2.76015,-1.22889 4.94003,-5.55755 3.97195,-7.88724 6.384,-7.72692 10.40775,0.69173 l 2.11211,4.41903 5.51921,0.89035 c 5.50385,0.88786 7.76259,2.12703 7.76259,4.25863 0,0.6187 -1.87525,3.09092 -4.16724,5.49382 l -4.16723,4.36891 0.76654,4.14662 c 0.47548,2.57208 1.82099,5.73473 3.54346,8.328964 5.47546,8.24663 3.20055,14.07739 -6.45506,16.54483 -7.63796,1.95183 -21.24389,0.59028 -39.84373,-3.98718 -4.41697,-1.08702 -8.20277,-1.8045 -8.41288,-1.59439 -0.21011,0.21011 0.16782,4.56816 0.83985,9.68454 0.99843,7.60135 1.06791,10.39762 0.37994,15.29082 -2.06541,14.69012 -13.34815,28.13806 -27.05155,32.24287 l -4.50812,1.3504 v 8.46652 8.46653 l 81.40351,0.013 c 46.25968,0.007 84.31196,0.32086 88.14035,0.72612 13.08237,1.38486 24.52583,6.82569 33.74368,16.04354 9.44151,9.44152 14.71534,20.75308 16.08145,34.49222 0.47021,4.72897 0.66744,53.73425 0.5356,133.07997 -0.1839,110.67277 -0.34208,125.67891 -1.33149,126.30432 -0.70162,0.4435 -91.67773,0.70974 -242.52632,0.70974 -150.84859,0 -241.824694,-0.26624 -242.526316,-0.70974 z M 116.02339,448.37426 v -44.538 H 67.74269 19.461988 v 44.03897 c 0,24.22145 0.224562,44.26355 0.499026,44.53801 0.274463,0.27447 22.000779,0.49903 48.280702,0.49903 h 47.781674 z m 204.9497,43.78492 c 45.08677,-3.07859 84.28637,-26.27467 109.41236,-64.74399 13.90415,-21.28802 21.75482,-48.42466 21.7169,-75.06666 -0.0868,-60.96409 -38.38294,-113.87451 -96.5191,-133.35191 -22.21023,-7.44111 -49.05303,-8.82611 -73.24495,-3.77918 -50.27512,10.4884 -92.31675,50.46128 -105.66036,100.46112 -6.55283,24.55408 -6.40249,51.15633 0.42419,75.05828 16.07076,56.26785 66.31559,97.16641 124.55869,101.38895 4.32281,0.3134 8.02807,0.61357 8.23392,0.66704 0.20584,0.0535 5.19111,-0.23166 11.07835,-0.63365 z m 171.38373,-43.98373 0.19307,-44.36252 -21.03068,0.19879 -21.03068,0.19881 -3.90798,8.60817 c -4.36378,9.61224 -10.38742,19.82008 -16.73859,28.36575 -5.36851,7.22346 -22.19888,24.10096 -28.81272,28.8934 l -5.05263,3.66117 v 9.59213 9.59212 l 48.09357,-0.19263 48.09356,-0.19264 z M 223.78305,234.03111 c 24.07307,-18.1396 56.39664,-29.27086 85.08245,-29.29983 l 6.08187,-0.006 0.46783,-2.33919 c 0.25731,-1.28654 0.46784,-3.3076 0.46784,-4.49122 v -2.15205 h -20.80936 c -15.187,0 -21.05204,-0.24269 -21.7076,-0.89825 -0.61694,-0.61694 -0.89824,-4.33505 -0.89824,-11.87264 v -10.9744 l -4.39079,-0.39814 c -5.80491,-0.52637 -7.58582,-1.53356 -7.58582,-4.29015 0,-1.21943 0.5269,-2.47696 1.19434,-2.85047 0.65689,-0.36762 4.48445,-0.50997 8.50568,-0.31633 6.16778,0.297 8.08853,0.0934 12.28036,-1.30152 11.96584,-3.98197 20.63916,-14.6578 21.92824,-26.99107 0.27463,-2.62751 -0.0857,-8.63647 -0.89977,-15.00542 l -1.35782,-10.62294 -2.67347,-1.03484 c -4.88434,-1.89065 -6.41398,-2.92912 -6.64313,-4.51004 -0.38201,-2.63558 1.90628,-4.22016 5.30864,-3.6761 l 2.95317,0.47223 -0.43037,-2.455614 c -0.23671,-1.35058 -0.78795,-5.31876 -1.22499,-8.81817 -1.33288,-10.67267 0.48262,-9.45061 -14.78776,-9.9541 -10.43979,-0.34423 -15.23067,-0.86571 -22.28178,-2.42536 -12.34674,-2.731 -12.67907,-2.73027 -12.92672,0.0286 -0.61472,6.84793 -4.10554,16.564 -6.18872,17.22518 -0.75472,0.23954 -3.3118,-0.12833 -5.68241,-0.81748 -3.58776,-1.04299 -4.93708,-1.1083 -8.05046,-0.38965 -3.36949,0.77777 -9.25167,4.26014 -8.48721,5.02459 0.16867,0.16867 1.7908,-0.21727 3.60472,-0.85764 1.81393,-0.64037 4.05082,-0.97569 4.97086,-0.74513 1.7222,0.43156 2.9342,3.279434 2.2047,5.180464 -0.22049,0.57461 -3.62523,2.11893 -7.5661,3.43182 l -7.16521,2.3871 v 2.58797 c 0,5.42439 5.40791,12.15278 11.02048,13.7114 1.55511,0.43186 4.36011,0.78708 6.23332,0.78937 1.87322,0.002 3.81006,0.40839 4.3041,0.90242 1.29259,1.29259 1.29259,67.27349 0,68.56608 -0.65556,0.65556 -6.5206,0.89825 -21.7076,0.89825 -17.42201,0 -20.80936,0.17205 -20.80936,1.05696 0,2.76828 2.31125,12.57769 4.04892,17.18446 2.70084,7.1602 6.60932,13.31361 12.26359,19.30743 2.65534,2.8148 4.98884,5.11782 5.18555,5.11782 0.19672,0 2.97234,-1.97022 6.16803,-4.37825 z m -39.9926,-124.78973 c 11.39947,-2.23883 21.30897,-4.87896 21.30897,-5.67722 0,-0.33862 -1.73013,-4.915934 -3.84474,-10.171794 -2.1146,-5.25586 -4.3884,-11.34158 -5.05287,-13.52381 l -1.20815,-3.9677 -10.10502,6.22282 c -13.31959,8.2024 -26.83384,18.542524 -24.25612,18.559024 3.35026,0.0214 9.82797,1.70178 10.59555,2.74852 1.40321,1.91354 1.16309,2.92435 -1.3838,5.82509 l -2.31947,2.64173 3.62941,-0.44387 c 1.99618,-0.24414 7.68249,-1.23989 12.63624,-2.21279 z m 175.76013,1.26917 c 2.31792,-1.9237 -1.70984,-7.59773 -7.36062,-10.36914 l -3.97259,-1.948354 -4.79068,2.483864 c -4.91471,2.54816 -8.19684,2.73162 -9.05091,0.50594 -0.21222,-0.55303 -0.0136,-3.589164 0.44129,-6.746974 l 0.82714,-5.74147 -4.07941,-3.79736 c -2.24368,-2.08854 -5.50025,-4.63891 -7.23681,-5.66749 -3.11736,-1.84643 -3.25024,-1.85879 -10.47954,-0.97496 -4.02717,0.49235 -7.55499,1.10753 -7.8396,1.36707 -0.62166,0.56691 2.30233,23.417384 3.10685,24.279484 0.81956,0.87822 20.17854,5.51561 28.47494,6.8211 8.34589,1.31329 20.26085,1.19842 21.95994,-0.21171 z M 199.04635,53.862556 c 4.27467,-8.05783 11.16892,-13.7041 20.63408,-16.89894 5.9648,-2.01334 5.9892,-2.03214 3.75817,-2.89609 -4.73264,-1.83268 -30.2901,-8.91964 -37.55094,-10.41269 -14.97703,-3.07973 -28.15657,-3.75603 -31.60945,-1.62203 -4.42707,2.73608 10.06106,15.94131 32.6567,29.76502 4.84428,2.96366 9.1452,5.40577 9.55761,5.4269 0.4124,0.0211 1.56163,-1.49184 2.55383,-3.36217 z m 139.4026,-9.45505 c 9.51729,-6.4227 18.33666,-14.14315 20.90684,-18.30179 1.52946,-2.47473 1.55505,-2.73198 0.38775,-3.89812 -1.68338,-1.6817 -15.29448,-1.58094 -25.14705,0.18616 -6.9275,1.24248 -21.81091,4.78168 -22.34206,5.31282 -0.1459,0.1459 0.58494,1.38213 1.62409,2.74718 3.20757,4.21355 7.07665,13.15846 8.05176,18.6148 l 0.92964,5.20202 3.43554,-1.9899 c 1.88954,-1.09445 7.35861,-4.63738 12.15349,-7.87317 z"
     id="path6" />
  <path
     style="fill:#225500;stroke-width:0.748538;paint-order:stroke markers fill"
     d="m 12.706619,497.72904 c -0.96633,-2.54164 -0.981569,-250.67073 -0.01591,-259.06819 2.499404,-21.73506 16.725134,-39.63551 37.488157,-47.17191 l 5.587217,-2.028 63.251457,-0.5071 c 34.78831,-0.2789 74.45147,-0.54972 88.14035,-0.60181 l 24.88889,-0.0947 v -27.63388 -27.63388 l -3.90683,-0.83787 c -7.83092,-1.67942 -13.712,-6.99073 -17.85286,-16.1232 -1.73629,-3.82931 -2.53804,-4.86808 -3.52997,-4.5735 -9.20631,2.73402 -28.70379,6.70696 -37.04375,7.54828 l -5.07026,0.51149 0.47077,3.54887 c 0.36748,2.77022 0.19538,3.82428 -0.78437,4.80403 -1.73291,1.73291 -2.65695,1.60456 -8.22873,-1.14302 l -4.86325,-2.39817 -5.13864,2.48592 c -8.10589,3.92137 -9.75657,2.60992 -8.27498,-6.57438 l 0.90416,-5.60482 -3.41842,-3.04759 c -4.05492,-3.61502 -5.1008,-5.47656 -4.28672,-7.62981 0.6511,-1.72218 1.87245,-2.15255 8.28974,-2.92111 l 4.20157,-0.50319 2.1187,-4.432844 c 1.16528,-2.43806 2.71364,-4.97125 3.44079,-5.62931 1.68385,-1.52387 4.8509,-0.81657 5.49992,1.22831 0.67033,2.11201 1.56207,1.88877 5.5096,-1.37933 5.36388,-4.44068 15.12381,-11.07362 25.48482,-17.31971 5.18434,-3.12536 9.42608,-6.14826 9.42608,-6.71755 0,-0.5693 -5.15184,-4.15589 -11.44854,-7.9702 -14.26511,-8.64129 -23.03646,-15.13716 -29.5502,-21.88422 -9.76267,-10.11236 -10.50723,-17.12596 -2.24975,-21.19208 3.16585,-1.55892 4.56324,-1.75171 12.18416,-1.68098 14.33178,0.133 33.6765,4.35968 61.1884,13.36921 l 14.70611,4.81592 6.0672,-5.82476 c 15.71938,-15.09123 35.70319,-17.6958898 54.88296,-7.15337 l 4.82597,2.65269 12.43953,-2.97162 c 16.85874,-4.0273 22.25368,-4.85489 31.90153,-4.89372 9.25211,-0.0372 14.11214,1.46523 16.4929,5.09872 1.82645,2.78751 1.53962,7.41518 -0.69602,11.23003 -3.95683,6.7518 -18.94729,18.83881 -36.17744,29.17035 -2.56369,1.53724 -4.86685,3.12763 -5.11812,3.53421 -0.25128,0.40657 -0.22451,2.42875 0.0595,4.49372 0.47397,3.44618 0.80207,3.93395 3.99533,5.93959 3.52534,2.21423 5.56213,2.58285 9.69927,1.75542 1.90348,-0.38069 2.74435,-1.32172 4.97625,-5.56904 4.13536,-7.86962 6.44907,-7.7112 10.47758,0.71741 2.11371,4.42239 2.15239,4.45448 5.94599,4.93234 6.29535,0.79299 8.63187,1.78067 9.1564,3.87053 0.39542,1.57549 -0.22337,2.58221 -3.82317,6.21996 l -4.29495,4.34024 0.84099,3.92139 c 0.46255,2.15676 2.07054,5.91342 3.57332,8.348124 5.34673,8.66238 3.15747,14.31698 -6.49964,16.78779 -7.80643,1.99731 -19.7874,0.81809 -39.90764,-3.92788 -4.45212,-1.05017 -8.20779,-1.79063 -8.34594,-1.64548 -0.13815,0.14514 0.28755,4.7346 0.94601,10.19878 1.50249,12.46837 0.76931,17.97321 -3.56192,26.74348 -4.76772,9.65414 -14.11981,17.79163 -23.42291,20.38087 l -4.30409,1.19791 v 8.48547 8.48546 l 81.40351,0.013 c 46.70251,0.007 84.312,0.31947 88.22641,0.73197 7.75596,0.81733 16.77347,3.7469 23.22857,7.5464 5.59533,3.29345 15.6269,13.32501 18.92034,18.92034 3.87264,6.57936 6.72024,15.4387 7.58337,23.59314 0.49577,4.68368 0.68772,51.30973 0.54827,133.17573 -0.18907,111.00116 -0.34798,126.05319 -1.33737,126.67859 -0.70154,0.44345 -91.91303,0.71404 -243.10625,0.7212 L 13.436631,499.6492 Z M 116.02339,448.37426 v -44.538 H 67.74269 19.461988 v 44.10135 c 0,34.58071 0.201995,44.18287 0.935673,44.47892 0.51462,0.20765 22.240935,0.40414 48.280702,0.43664 l 47.345027,0.0591 z m 209.21638,43.38748 c 31.56321,-2.30983 64.56972,-18.30029 87.6866,-42.48097 56.16898,-58.75377 51.33182,-151.95091 -10.58719,-203.98242 -35.03041,-29.4366 -81.54184,-40.04599 -125.54839,-28.63792 -49.06274,12.7188 -88.10575,51.87413 -100.55698,100.84627 -4.1731,16.41326 -5.39303,39.2127 -2.95416,55.21027 9.94523,65.23488 63.56696,114.82416 129.12971,119.41891 7.74925,0.54308 11.03201,0.48928 22.83041,-0.37414 z m 167.11705,-43.58629 0.19307,-44.36252 -21.032,0.19879 -21.03201,0.19881 -3.51537,7.85965 c -4.2714,9.54998 -10.35811,19.99872 -16.58897,28.47741 -5.56396,7.5712 -22.29178,24.39616 -29.3523,29.52275 l -5.05263,3.66868 v 9.59213 9.59212 l 48.09357,-0.19263 48.09356,-0.19264 z M 222.18551,235.14477 c 24.34885,-18.71543 57.4984,-30.41962 86.15692,-30.41962 h 6.60494 l 0.46783,-2.33919 c 0.25731,-1.28654 0.46784,-3.3076 0.46784,-4.49122 v -2.15205 h -20.80936 c -15.187,0 -21.05204,-0.24269 -21.7076,-0.89825 -0.61694,-0.61694 -0.89824,-4.33505 -0.89824,-11.87264 v -10.9744 l -4.39079,-0.39814 c -5.80491,-0.52637 -7.58582,-1.53356 -7.58582,-4.29015 0,-3.07769 1.50697,-3.60772 9.03681,-3.17838 10.84874,0.61856 18.8276,-2.34292 25.68682,-9.53409 4.91154,-5.14924 7.5799,-10.23099 8.77343,-16.70853 0.75931,-4.12094 0.68611,-6.71426 -0.45955,-16.27931 l -1.36276,-11.37752 -2.68532,-1.03981 c -4.8977,-1.89647 -6.42572,-2.93314 -6.655,-4.51499 -0.38201,-2.63558 1.90628,-4.22016 5.30864,-3.6761 l 2.95317,0.47223 -0.43466,-2.455614 c -0.23906,-1.35058 -0.82233,-5.48718 -1.29615,-9.19244 -0.47382,-3.70527 -1.14523,-7.27705 -1.49203,-7.93731 -0.52703,-1.00341 -2.75542,-1.27264 -13.57507,-1.64013 -10.14134,-0.34446 -15.16931,-0.90718 -23.21804,-2.59854 -10.91611,-2.2939 -11.80103,-2.19769 -11.81725,1.28475 -0.0115,2.48001 -1.84895,9.38358 -3.44214,12.93295 -1.58869,3.53935 -2.92909,3.93544 -8.16586,2.41307 -4.68593,-1.36223 -8.00934,-1.04823 -12.35158,1.16703 -2.39363,1.22113 -5.2793,3.7349 -4.28747,3.7349 0.20449,0 1.84574,-0.52034 3.6472,-1.15632 1.80147,-0.63598 4.02817,-0.9677 4.94821,-0.73714 1.7222,0.43156 2.9342,3.279434 2.2047,5.180464 -0.22049,0.57461 -3.62523,2.11893 -7.5661,3.43182 -7.05336,2.34984 -7.16495,2.42411 -7.14877,4.75812 0.056,8.08029 8.06641,14.7219 17.75597,14.7219 1.58798,0 3.29145,0.40421 3.78549,0.89824 1.37983,1.37984 1.28414,67.46368 -0.0994,68.61188 -0.66169,0.54916 -7.90798,0.89507 -21.52046,1.02732 l -20.52287,0.1994 0.20784,3.36842 c 0.47797,7.74589 4.69225,18.94047 10.14457,26.94737 2.15567,3.16566 10.08441,11.97661 10.77745,11.97661 0.17445,0 2.22844,-1.46907 4.56442,-3.26459 z m -44.782,-124.7723 c 6.96448,-1.02884 27.69591,-5.98714 27.69591,-6.62398 0,-0.25753 -1.97706,-5.516834 -4.39346,-11.687324 -2.41641,-6.17049 -4.63236,-12.31249 -4.92433,-13.64889 l -0.53087,-2.42983 -3.49673,2.00588 c -7.4509,4.27418 -22.43641,14.37187 -27.07032,18.24081 l -4.86014,4.057824 5.23441,0.94388 c 7.52444,1.3568 8.78518,3.47097 4.78602,8.02578 l -2.31974,2.64204 2.13261,-0.34842 c 1.17293,-0.19163 4.65892,-0.72163 7.74664,-1.17777 z m 180.02339,0.87918 c 4.89859,-1.04195 2.01655,-7.24902 -5.09454,-10.97215 l -3.90896,-2.046614 -4.6465,2.345544 c -8.47979,4.28059 -10.46864,2.95083 -9.06737,-6.062514 l 0.85802,-5.51897 -4.28458,-4.05217 c -2.35652,-2.2287 -5.5834,-4.8267 -7.17085,-5.77334 -2.79056,-1.66409 -3.12226,-1.69217 -10.00252,-0.84663 -3.91394,0.48099 -7.43203,1.07573 -7.81799,1.32164 -0.42422,0.27029 -0.0725,5.17996 0.88929,12.41471 l 1.59103,11.967614 4.8655,1.31715 c 19.65244,5.32021 36.10833,7.53956 43.78947,5.90573 z M 198.87308,54.081866 c 3.70989,-7.57831 12.71961,-14.96494 21.13248,-17.32547 2.50572,-0.70307 4.55584,-1.52071 4.55584,-1.81699 0,-0.59515 -9.05061,-3.4721 -22.83041,-7.25719 -27.61252,-7.58471 -48.2807,-9.14781 -48.2807,-3.65138 0,1.72531 9.52048,11.21743 16.35461,16.3059 6.07877,4.52605 25.85505,16.92641 26.99449,16.92641 0.28398,0 1.21714,-1.43157 2.07369,-3.18128 z m 135.72341,-7.15337 c 11.90308,-7.65769 21.76416,-15.97654 24.84231,-20.9571 1.5024,-2.43093 1.52412,-2.66426 0.3294,-3.53786 -3.2588,-2.38289 -15.90598,-1.92146 -30.66493,1.1188 -7.83306,1.61357 -16.41613,3.73297 -16.85138,4.16109 -0.1445,0.14213 0.58748,1.37528 1.62663,2.74033 3.20501,4.21019 7.07635,13.15679 8.04951,18.60227 l 0.92742,5.18949 2.68923,-1.61188 c 1.47908,-0.88653 5.5524,-3.45384 9.05181,-5.70514 z"
     id="path7" />
  <path
     style="fill:#225500;stroke-width:0.748538;paint-order:stroke markers fill"
     d="m 268.12632,151.42924 c -1.98532,-1.98532 -0.99766,-4.77923 3.03157,-8.57578 4.57006,-4.30614 9.03968,-6.64204 14.99934,-7.83892 4.94846,-0.99379 6.52113,-0.24841 6.52113,3.09072 0,2.5922 -0.90153,3.26864 -5.7917,4.34563 -4.51662,0.99472 -8.45592,3.32432 -12.13291,7.17509 -2.63351,2.75797 -5.02266,3.40804 -6.62743,1.80326 z"
     id="path8" />
  <path
     style="fill:#225500;stroke-width:0.748538;paint-order:stroke markers fill"
     d="m 271.05835,125.96944 c -0.79481,-2.14859 -0.25872,-4.1014 1.29611,-4.72134 0.6799,-0.27109 3.20861,-0.7791 5.61936,-1.12891 2.41074,-0.34982 4.55039,-0.80324 4.75476,-1.00761 0.20437,-0.20438 -0.16723,-4.29073 -0.82577,-9.0808 -1.27142,-9.24788 -0.99564,-11.085654 1.77213,-11.809444 3.33286,-0.87156 4.29572,1.34072 5.94827,13.666804 1.85882,13.86462 1.89956,13.76798 -6.30157,14.95167 -8.71539,1.25791 -11.55042,1.0567 -12.26329,-0.87037 z"
     id="path9" />
  <path
     style="fill:#225500;stroke-width:0.748538;paint-order:stroke markers fill"
     d="m 378.58144,66.198926 c -8.31124,-4.38803 -8.12262,-16.21199 0.32876,-20.60924 3.11208,-1.61921 8.20039,-1.32846 11.11407,0.63507 7.44735,5.01877 7.20877,15.48182 -0.45195,19.82099 -3.62131,2.05117 -7.29886,2.10242 -10.99088,0.15318 z"
     id="path10" />
  <path
     style="fill:#225500;stroke-width:0.748538;paint-order:stroke markers fill"
     d="m 185.63705,153.63743 c -6.96303,-4.75289 -6.83996,-14.28059 0.25285,-19.57614 3.20649,-2.394 9.26931,-2.10399 12.83255,0.61382 9.06813,6.9166 4.5977,20.64653 -6.72245,20.64653 -2.80974,0 -4.58331,-0.46945 -6.36295,-1.68421 z"
     id="path11" />
  <path
     style="fill:#225500;stroke-width:0.748538;paint-order:stroke markers fill"
     d="m 293.31146,474.76022 c -1.30361,-1.06054 -14.64363,-24.05558 -16.60993,-28.63158 -3.89746,-9.07021 -4.69616,-18.01986 -3.2733,-36.67835 0.56511,-7.41052 0.90397,-13.62711 0.75301,-13.81464 -0.15095,-0.18752 -11.29485,10.67563 -24.76421,24.14034 -16.17913,16.17357 -25.00905,24.48131 -26.02005,24.48131 -1.95427,0 -3.3268,-1.37253 -3.3268,-3.3268 0,-1.01101 8.30774,-9.84092 24.4813,-26.02006 13.46472,-13.46935 24.26925,-24.7018 24.01005,-24.961 -0.2592,-0.2592 -5.14747,-0.10385 -10.86283,0.3452 -15.91463,1.25042 -25.9732,1.05594 -32.56359,-0.6296 -6.56116,-1.67806 -10.4236,-3.55079 -25.27546,-12.25498 -9.72492,-5.69945 -10.87724,-6.5895 -11.07916,-8.55751 -0.12395,-1.20804 0.21289,-2.55661 0.74854,-2.99683 0.53564,-0.4402 6.70021,-1.74851 13.69904,-2.90733 20.85024,-3.45225 31.40625,-2.78709 43.61409,2.74821 2.62719,1.19122 4.66773,1.87393 4.53453,1.51714 -0.1332,-0.3568 -3.10534,-2.92124 -6.60476,-5.69875 -13.73319,-10.90013 -21.1363,-19.36811 -26.80547,-30.66119 -2.65285,-5.2845 -14.36412,-41.77085 -14.36412,-44.75125 0,-0.57849 0.7013,-1.68648 1.55845,-2.46218 1.52855,-1.38333 1.61353,-1.38021 4.43067,0.1629 1.57973,0.8653 9.58775,6.16298 17.7956,11.77262 21.78776,14.8908 30.02869,24.04442 37.03156,41.13283 1.31964,3.2202 2.50962,5.52412 2.64438,5.11982 0.13477,-0.4043 -0.47929,-4.38638 -1.36456,-8.84906 -3.0362,-15.30561 -2.7659,-30.13378 0.79095,-43.38843 1.68973,-6.2968 18.47449,-51.87505 19.6055,-53.23783 1.25465,-1.51176 4.20158,-1.10108 5.35446,0.7462 1.42705,2.28656 12.29754,48.98836 13.31839,57.21849 1.59063,12.82368 -0.0651,25.80327 -5.43361,42.59603 -1.65846,5.18766 -2.89156,9.55592 -2.74022,9.70726 0.15134,0.15135 3.96384,-6.17826 8.47221,-14.06579 12.55307,-21.96197 20.73394,-31.58724 35.34217,-41.58212 7.44392,-5.0931 56.90477,-30.10779 59.5313,-30.10779 2.20481,0 3.5224,1.32453 3.5224,3.54096 0,3.12041 -26.3802,54.6983 -31.53656,61.65947 -11.11405,15.00416 -19.94052,22.08216 -44.66532,35.81738 -4.65256,2.58461 -8.34535,4.81313 -8.20621,4.95227 0.13915,0.13914 3.94578,-0.92625 8.45919,-2.36754 12.51569,-3.99669 21.4575,-5.54473 31.99883,-5.53973 11.59043,0.005 13.08482,0.25882 42.72712,7.24273 21.37276,5.03556 24.74921,6.02154 25.72611,7.51249 2.24174,3.42133 0.66828,4.29186 -24.91313,13.78335 -26.22349,9.72973 -32.20401,11.47482 -43.37951,12.65798 -8.8264,0.93446 -16.04809,0.45318 -28.81383,-1.92026 -9.24353,-1.71858 -11.78557,-1.84743 -7.99188,-0.40507 20.98537,7.97863 29.99265,15.8381 47.23745,41.218 11.35142,16.70637 12.18016,18.59991 9.03025,20.63248 -1.29482,0.83552 -4.01908,0.20919 -20.16449,-4.63598 -10.26708,-3.08111 -21.1276,-6.73869 -24.1345,-8.12796 -11.6806,-5.39677 -20.9522,-13.37854 -32.79282,-28.23081 -2.85637,-3.58287 -5.29411,-6.41359 -5.4172,-6.2905 -0.12311,0.1231 0.65687,2.21244 1.73327,4.64297 3.20428,7.23534 4.79857,14.76473 4.80462,22.69094 0.006,8.25195 -3.41028,31.78142 -4.9824,34.31302 -1.16194,1.87106 -3.11979,2.17202 -4.86952,0.74853 z"
     id="path12" />
</svg>
